<svg xmlns="http://www.w3.org/2000/svg" width="21" height="21" viewBox="0 0 21 21">
  <path id="dribbble" d="M18.5,8A10.5,10.5,0,1,0,29,18.5,10.512,10.512,0,0,0,18.5,8Zm6.942,4.842a8.926,8.926,0,0,1,2.025,5.587,20.959,20.959,0,0,0-6.245-.289c-.244-.594-.473-1.117-.788-1.762a11.947,11.947,0,0,0,5.008-3.536Zm-1-1.037a10.126,10.126,0,0,1-4.7,3.24A47.872,47.872,0,0,0,16.4,9.794,8.945,8.945,0,0,1,24.445,11.8ZM14.687,10.4a57.226,57.226,0,0,1,3.325,5.187,33.453,33.453,0,0,1-8.291,1.093A9,9,0,0,1,14.687,10.4ZM9.531,18.514c0-.092,0-.183,0-.274a33.083,33.083,0,0,0,9.217-1.276c.257.5.5,1.013.727,1.522a13.892,13.892,0,0,0-7.643,6.025A8.933,8.933,0,0,1,9.531,18.514Zm3.464,7.075a12.614,12.614,0,0,1,7.1-5.621A37.28,37.28,0,0,1,22,26.77,8.95,8.95,0,0,1,12.995,25.589Zm10.516.359a38.709,38.709,0,0,0-1.742-6.395,13.164,13.164,0,0,1,5.586.383A8.984,8.984,0,0,1,23.511,25.948Z" transform="translate(-8 -8)" fill="#ffb51f"/>
</svg>
