<svg xmlns="http://www.w3.org/2000/svg" width="21" height="21" viewBox="0 0 21 21">
  <path id="linkedin" d="M19.5,32H1.5A1.506,1.506,0,0,0,0,33.514V51.486A1.506,1.506,0,0,0,1.5,53h18A1.51,1.51,0,0,0,21,51.486V33.514A1.51,1.51,0,0,0,19.5,32ZM6.347,50H3.234V39.978H6.352V50ZM4.791,38.609a1.8,1.8,0,1,1,1.8-1.8A1.805,1.805,0,0,1,4.791,38.609ZM18.014,50H14.9V45.125c0-1.162-.023-2.658-1.617-2.658-1.622,0-1.87,1.266-1.87,2.573V50H8.3V39.978h2.986v1.369h.042a3.278,3.278,0,0,1,2.948-1.617c3.15,0,3.736,2.077,3.736,4.777Z" transform="translate(0 -32)" fill="#ffb51f"/>
</svg>
