<svg xmlns="http://www.w3.org/2000/svg" width="21" height="17.056" viewBox="0 0 21 17.056">
  <path id="twitter" d="M18.841,52.333c.013.187.013.373.013.56A12.162,12.162,0,0,1,6.609,65.138,12.163,12.163,0,0,1,0,63.206a8.9,8.9,0,0,0,1.039.053A8.62,8.62,0,0,0,6.383,61.42a4.312,4.312,0,0,1-4.024-2.985,5.427,5.427,0,0,0,.813.067A4.552,4.552,0,0,0,4.3,58.356,4.3,4.3,0,0,1,.853,54.132v-.053a4.334,4.334,0,0,0,1.945.546,4.31,4.31,0,0,1-1.332-5.756,12.234,12.234,0,0,0,8.874,4.5,4.859,4.859,0,0,1-.107-.986,4.308,4.308,0,0,1,7.449-2.945A8.474,8.474,0,0,0,20.414,48.4a4.292,4.292,0,0,1-1.892,2.372A8.628,8.628,0,0,0,21,50.107,9.252,9.252,0,0,1,18.841,52.333Z" transform="translate(0 -48.082)" fill="#ffb51f"/>
</svg>
