<svg xmlns="http://www.w3.org/2000/svg" width="32" height="32" viewBox="0 0 32 32">
  <path id="linkedin" d="M29.714,32H2.279A2.3,2.3,0,0,0,0,34.307V61.693A2.3,2.3,0,0,0,2.279,64H29.714A2.3,2.3,0,0,0,32,61.693V34.307A2.3,2.3,0,0,0,29.714,32ZM9.671,59.429H4.929V44.157h4.75V59.429ZM7.3,42.071a2.75,2.75,0,1,1,2.75-2.75A2.751,2.751,0,0,1,7.3,42.071ZM27.45,59.429H22.707V52c0-1.771-.036-4.05-2.464-4.05-2.471,0-2.85,1.929-2.85,3.921v7.557H12.65V44.157H17.2v2.086h.064a5,5,0,0,1,4.493-2.464c4.8,0,5.693,3.164,5.693,7.279Z" transform="translate(0 -32)" fill="#ffb51f"/>
</svg>
