<svg xmlns="http://www.w3.org/2000/svg" width="32" height="32" viewBox="0 0 32 32">
  <path id="medium" d="M0,32V64H32V32Zm26.586,7.579-1.714,1.643a.5.5,0,0,0-.193.479V53.793a.492.492,0,0,0,.193.479l1.679,1.643v.364H18.121v-.35l1.736-1.686c.171-.171.171-.221.171-.479V43.986L15.2,56.243h-.65L8.929,43.986V52.2a1.129,1.129,0,0,0,.314.943L11.5,55.879v.364H5.086v-.364l2.257-2.736a1.094,1.094,0,0,0,.293-.943V42.7a.815.815,0,0,0-.271-.7L5.357,39.579v-.364h6.236l4.814,10.571,4.236-10.564h5.943Z" transform="translate(0 -32)" fill="#ffb51f"/>
</svg>
