<svg xmlns="http://www.w3.org/2000/svg" width="32" height="25.99" viewBox="0 0 32 25.99">
  <path id="twitter" d="M28.711,54.559c.02.284.02.569.02.853,0,8.67-6.6,18.66-18.66,18.66A18.533,18.533,0,0,1,0,71.128a13.566,13.566,0,0,0,1.584.081,13.135,13.135,0,0,0,8.142-2.8,6.57,6.57,0,0,1-6.132-4.548,8.271,8.271,0,0,0,1.239.1,6.936,6.936,0,0,0,1.726-.223A6.559,6.559,0,0,1,1.3,57.3v-.081a6.6,6.6,0,0,0,2.964.832,6.568,6.568,0,0,1-2.03-8.772,18.642,18.642,0,0,0,13.523,6.863,7.4,7.4,0,0,1-.162-1.5,6.565,6.565,0,0,1,11.35-4.487,12.912,12.912,0,0,0,4.162-1.584,6.541,6.541,0,0,1-2.883,3.614A13.148,13.148,0,0,0,32,51.168,14.1,14.1,0,0,1,28.711,54.559Z" transform="translate(0 -48.082)" fill="#ffb51f"/>
</svg>
