<svg xmlns="http://www.w3.org/2000/svg" width="40.59" height="35.516" viewBox="0 0 40.59 35.516">
  <path id="camera-retro" d="M3.805,32A3.806,3.806,0,0,0,0,35.805V63.711a3.806,3.806,0,0,0,3.805,3.805H36.785a3.806,3.806,0,0,0,3.805-3.805V35.805A3.806,3.806,0,0,0,36.785,32Zm0,2.537h8.4a.477.477,0,0,1,.476.476V36.6a.477.477,0,0,1-.476.476h-9.2a.477.477,0,0,1-.476-.476v-.793A1.272,1.272,0,0,1,3.805,34.537Zm33.772,7.611H3.013a.477.477,0,0,1-.476-.476V38.818a.477.477,0,0,1,.476-.476h10.94l2.394-3.591a.472.472,0,0,1,.4-.214H36.785a1.272,1.272,0,0,1,1.268,1.268v5.867A.477.477,0,0,1,37.577,42.147ZM20.3,63.077a9.513,9.513,0,1,1,9.513-9.513A9.521,9.521,0,0,1,20.3,63.077Zm0-16.49a6.976,6.976,0,1,0,6.976,6.976A6.987,6.987,0,0,0,20.3,46.587ZM16.49,54.832a1.272,1.272,0,0,1-1.268-1.268A5.078,5.078,0,0,1,20.3,48.49a1.268,1.268,0,0,1,0,2.537,2.544,2.544,0,0,0-2.537,2.537A1.272,1.272,0,0,1,16.49,54.832Z" transform="translate(0 -32)" fill="#ffb51f"/>
</svg>
