<svg xmlns="http://www.w3.org/2000/svg" width="28.44" height="37.92" viewBox="0 0 28.44 37.92">
  <path id="file-image" d="M28.44,9.031V9.48H18.96V0h.449a1.777,1.777,0,0,1,1.257.521l7.254,7.254A1.778,1.778,0,0,1,28.44,9.031ZM18.367,11.85a1.783,1.783,0,0,1-1.777-1.778V0H1.778A1.777,1.777,0,0,0,0,1.778V36.143A1.777,1.777,0,0,0,1.778,37.92H26.662a1.777,1.777,0,0,0,1.778-1.777V11.85ZM8.335,13.035A3.555,3.555,0,1,1,4.78,16.59,3.555,3.555,0,0,1,8.335,13.035ZM23.74,30.81H4.78l.036-3.591,2.927-2.927a.847.847,0,0,1,1.221.036l2.927,2.927,7.667-7.667a.889.889,0,0,1,1.257,0l2.927,2.927v8.3Z" fill="#ffb51f"/>
</svg>
