<svg xmlns="http://www.w3.org/2000/svg" width="46.66" height="31.107" viewBox="0 0 46.66 31.107">
  <path id="newspaper" d="M44.716,64H7.129a1.944,1.944,0,0,0-1.944,1.944v.648H1.944A1.944,1.944,0,0,0,0,68.536V90.57a4.536,4.536,0,0,0,4.536,4.536H42.772a3.888,3.888,0,0,0,3.888-3.888V65.944A1.944,1.944,0,0,0,44.716,64ZM4.536,91.218a.648.648,0,0,1-.648-.648V70.481h1.3V90.57A.648.648,0,0,1,4.536,91.218Zm19.118-1.3H11.341a.972.972,0,0,1-.972-.972V88.3a.972.972,0,0,1,.972-.972H23.654a.972.972,0,0,1,.972.972v.648A.972.972,0,0,1,23.654,89.922Zm16.849,0H28.19a.972.972,0,0,1-.972-.972V88.3a.972.972,0,0,1,.972-.972H40.5a.972.972,0,0,1,.972.972v.648A.972.972,0,0,1,40.5,89.922ZM23.654,82.146H11.341a.972.972,0,0,1-.972-.972v-.648a.972.972,0,0,1,.972-.972H23.654a.972.972,0,0,1,.972.972v.648A.972.972,0,0,1,23.654,82.146Zm16.849,0H28.19a.972.972,0,0,1-.972-.972v-.648a.972.972,0,0,1,.972-.972H40.5a.972.972,0,0,1,.972.972v.648A.972.972,0,0,1,40.5,82.146Zm0-7.777H11.341a.972.972,0,0,1-.972-.972v-3.24a.972.972,0,0,1,.972-.972H40.5a.972.972,0,0,1,.972.972V73.4A.972.972,0,0,1,40.5,74.369Z" transform="translate(0 -64)" fill="#ffb51f"/>
</svg>
